<svg width="1080" height="684" viewBox="0 0 1080 684" fill="none" xmlns="http://www.w3.org/2000/svg">
<mask id="mask0" mask-type="alpha" maskUnits="userSpaceOnUse" x="0" y="0" width="1080" height="684">
<path d="M0 0H1080V684H0V0Z" fill="white"/>
</mask>
<g mask="url(#mask0)">
<path opacity="0.5" d="M0 -36L1257.7 -45L1080 77.457C1007.29 84.069 944.616 97.377 891.969 117.375C724.554 180.975 693.129 284.316 613.02 301.119C413.214 343.026 562.377 522 345.387 522C203.127 522 87.999 555.999 0 624V-36Z" fill="url(#paint0_linear)"/>
<g opacity="0.8" filter="url(#filter0_f)">
<path d="M-46.7999 -9H1078.29L967.65 0C788.655 149.946 693.024 238.446 680.763 265.5C662.373 306.081 486.333 321.708 439.302 342C387.072 364.536 456.429 438.027 390.747 462.279C305.241 493.851 331.347 483.711 230.127 507.36C66.5611 545.58 -10.1489 578.397 7.43866e-05 605.811L-46.7999 -9Z" fill="url(#paint1_linear)"/>
</g>
<g opacity="0.8" filter="url(#filter1_f)">
<path d="M0 603C90.561 541.185 202.104 503.901 334.62 491.142C533.4 472.008 419.697 377.994 237.672 406.497C116.322 425.499 37.095 448.941 0 476.82V603Z" fill="url(#paint2_linear)"/>
</g>
<path d="M0 -45H1257.7C1405 29.361 1345.77 68.361 1080 72C681.348 77.457 743.31 293.652 540 314.544C478.455 320.868 494.535 371.316 485.064 401.16C475.593 431.004 462.564 480.816 347.001 490.398C216.72 486.51 101.055 515.046 0 576V-45Z" fill="url(#paint3_linear)"/>
</g>
<defs>
<filter id="filter0_f" x="-56.7999" y="-19" width="1145.09" height="634.811" filterUnits="userSpaceOnUse" color-interpolation-filters="sRGB">
<feFlood flood-opacity="0" result="BackgroundImageFix"/>
<feBlend mode="normal" in="SourceGraphic" in2="BackgroundImageFix" result="shape"/>
<feGaussianBlur stdDeviation="5" result="effect1_foregroundBlur"/>
</filter>
<filter id="filter1_f" x="-10" y="391.158" width="459.3" height="221.841" filterUnits="userSpaceOnUse" color-interpolation-filters="sRGB">
<feFlood flood-opacity="0" result="BackgroundImageFix"/>
<feBlend mode="normal" in="SourceGraphic" in2="BackgroundImageFix" result="shape"/>
<feGaussianBlur stdDeviation="5" result="effect1_foregroundBlur"/>
</filter>
<linearGradient id="paint0_linear" x1="1019.89" y1="250.29" x2="237.534" y2="666.773" gradientUnits="userSpaceOnUse">
<stop stop-color="#FFB484"/>
<stop offset="1" stop-color="#9F0218"/>
</linearGradient>
<linearGradient id="paint1_linear" x1="255.129" y1="282.506" x2="671.566" y2="488.624" gradientUnits="userSpaceOnUse">
<stop stop-color="#F8091E"/>
<stop offset="1" stop-color="#A9085A"/>
</linearGradient>
<linearGradient id="paint2_linear" x1="219.65" y1="401.158" x2="219.65" y2="603" gradientUnits="userSpaceOnUse">
<stop stop-color="#F8091E"/>
<stop offset="1" stop-color="#A9085A"/>
</linearGradient>
<linearGradient id="paint3_linear" x1="1.2634e-05" y1="315.938" x2="971.091" y2="-137.205" gradientUnits="userSpaceOnUse">
<stop stop-color="#7A0046"/>
<stop offset="0.51055" stop-color="#D12300"/>
<stop offset="1" stop-color="#FF7E00"/>
</linearGradient>
</defs>
</svg>
