<svg xmlns="http://www.w3.org/2000/svg" xmlns:xlink="http://www.w3.org/1999/xlink" width="1440" height="400" viewBox="0 0 1440 400">
    <defs>
        <linearGradient id="prefix__b" x1="-.681%" x2="116.616%" y1="53.858%" y2="46.142%">
            <stop offset="0%" stop-color="#6A120C"/>
            <stop offset="43.781%" stop-color="#B21F15"/>
            <stop offset="79.575%" stop-color="#EE4C24"/>
            <stop offset="100%" stop-color="#FF7E00"/>
        </linearGradient>
        <linearGradient id="prefix__c" x1="10.53%" x2="89.47%" y1="0%" y2="100%">
            <stop offset="0%" stop-color="#6A120C"/>
            <stop offset="43.781%" stop-color="#B21F15"/>
            <stop offset="79.575%" stop-color="#EE4C24"/>
            <stop offset="100%" stop-color="#FF7E00"/>
        </linearGradient>
        <linearGradient id="prefix__e" x1="25.976%" x2="74.024%" y1="0%" y2="100%">
            <stop offset="0%" stop-color="#6A120C"/>
            <stop offset="43.781%" stop-color="#B21F15"/>
            <stop offset="79.575%" stop-color="#EE4C24"/>
            <stop offset="100%" stop-color="#FF7E00"/>
        </linearGradient>
        <path id="prefix__a" d="M0 0H1440V400H0z"/>
    </defs>
    <g fill="none" fill-rule="evenodd">
        <mask id="prefix__d" fill="#fff">
            <use xlink:href="#prefix__a"/>
        </mask>
        <use fill="url(#prefix__b)" fill-rule="nonzero" xlink:href="#prefix__a"/>
        <path fill="url(#prefix__c)" fill-rule="nonzero" d="M56.033 525.862c-98.532-7.966-278.939-294.002-228.217-468.063 50.722-174.061 218.217-389.565 395.946-339.417C370.984-240.078 363.154.699 450.157 166.938c87.004 166.24 135.855 54.324 45.877 194.765-89.978 140.44-341.47 172.125-440.001 164.159z" mask="url(#prefix__d)" opacity=".5" transform="scale(-1 1) rotate(-61 0 427.126)"/>
        <path fill="url(#prefix__e)" fill-rule="nonzero" d="M1181.171 737.724c-98.531-7.966-278.939-294.002-228.217-468.063C1003.677 95.6 1171.171-119.904 1348.9-69.756c147.222 41.54-20.357 230.429 126.179 422.592 146.535 192.164 133.894 381.203 8.093 464.61-125.8 83.406-203.47-71.756-302-79.722z" mask="url(#prefix__d)" opacity=".5" transform="scale(-1 1) rotate(-61 0 2526.069)"/>
    </g>
</svg>
