<svg xmlns="http://www.w3.org/2000/svg" width="24" height="24" viewBox="0 0 24 24">
    <g fill="#EE3124">
        <path d="M12.5 22c5.247 0 9.5-4.253 9.5-9.5S17.747 3 12.5 3 3 7.253 3 12.5c0 .552.448 1 1 1s1-.448 1-1C5 8.358 8.358 5 12.5 5c4.142 0 7.5 3.358 7.5 7.5 0 4.142-3.358 7.5-7.5 7.5-.552 0-1 .448-1 1s.448 1 1 1z"/>
        <path d="M13 8.291c0-.552-.448-1-1-1s-1 .448-1 1v5.226c0 .552.448 1 1 1h5c.552 0 1-.448 1-1 0-.553-.448-1-1-1h-4V8.29zM1.832 10.371c-.348-.273-.85-.213-1.124.134-.273.348-.213.85.134 1.124l2.875 2.262c.29.228.7.228.99 0l2.875-2.262c.347-.273.407-.776.134-1.124-.273-.347-.776-.407-1.123-.134l-2.381 1.873-2.38-1.873z"/>
    </g>
</svg>
