<svg xmlns="http://www.w3.org/2000/svg" width="20" height="20" viewBox="0 0 20 20">
    <g fill="#B2B4B5" fill-rule="evenodd">
        <path d="M3.214 11.05l-.425-1.7h7.977l-.392 1.7h-7.16zm8.336-5.1l-.391 1.7H2.364l-.425-1.7h9.611zM13.6 0c-.396 0-.739.273-.828.658l-.829 3.592H.85c-.262 0-.508.12-.67.327-.16.206-.218.475-.155.73l1.7 6.8c.095.377.435.643.825.643h8.5c.396 0 .74-.273.829-.659L14.276 1.7H17V0h-3.4zM3.4 13.6c-.938 0-1.7.762-1.7 1.7 0 .94.762 1.7 1.7 1.7s1.7-.76 1.7-1.7c0-.938-.762-1.7-1.7-1.7M10.2 13.6c-.938 0-1.7.762-1.7 1.7 0 .94.762 1.7 1.7 1.7s1.7-.76 1.7-1.7c0-.938-.762-1.7-1.7-1.7" transform="translate(1.5 1.5)"/>
    </g>
</svg>
