<svg xmlns="http://www.w3.org/2000/svg" xmlns:xlink="http://www.w3.org/1999/xlink" width="20" height="20" viewBox="0 0 20 20">
    <defs>
        <path id="prefix__a" d="M6 14V9H0V0h20v20H0v-6h6z"/>
    </defs>
    <g fill="none" fill-rule="evenodd">
        <g transform="translate(-1) translate(1)">
            <mask id="prefix__b" fill="#fff">
                <use xlink:href="#prefix__a"/>
            </mask>
            <path fill="#B2B4B5" d="M10 18.009c-4.418 0-8-3.582-8-8 0-4.419 3.582-8 8-8s8 3.581 8 8c0 4.418-3.582 8-8 8zm0-2c3.314 0 6-2.687 6-6 0-3.314-2.686-6-6-6s-6 2.686-6 6c0 3.313 2.686 6 6 6z" mask="url(#prefix__b)" transform="rotate(1 10 10.009)"/>
        </g>
        <path fill="#B2B4B5" d="M3.745 7.89L6.745 7.89 6.745 9.89 1.745 9.89 1.745 4.89 3.745 4.89z" transform="translate(-1) rotate(-25 4.245 7.39)"/>
        <path fill="#B2B4B5" d="M12 9.283L15 9.283 15 11.283 10 11.283 10 5.6 12 5.6z" transform="translate(-1)"/>
    </g>
</svg>
