<svg xmlns="http://www.w3.org/2000/svg" width="20" height="20" viewBox="0 0 20 20">
    <g fill="none" fill-rule="evenodd">
        <path fill="#B2B4B5" d="M9.772 7.024c-.288 0-.56.036-.816.108-.256.072-.54.188-.852.348L7.6 6.124c.312-.2.68-.354 1.104-.462.424-.108.84-.162 1.248-.162.512 0 .934.068 1.266.204.332.136.594.308.786.516.192.208.326.436.402.684.076.248.114.484.114.708 0 .224-.034.43-.102.618-.068.188-.154.362-.258.522-.104.16-.224.312-.36.456-.136.144-.268.28-.396.408-.096.096-.196.198-.3.306-.104.108-.198.222-.282.342-.084.12-.154.246-.21.378-.056.132-.084.266-.084.402v.144c0 .064.004.12.012.168H8.956c-.016-.08-.026-.17-.03-.27s-.006-.186-.006-.258c0-.224.028-.426.084-.606.056-.18.13-.348.222-.504.092-.156.198-.302.318-.438s.244-.268.372-.396c.184-.184.352-.366.504-.546.152-.18.228-.386.228-.618 0-.192-.074-.356-.222-.492-.148-.136-.366-.204-.654-.204zm1.116 6.036c0 .352-.114.624-.342.816-.228.192-.486.288-.774.288-.288 0-.546-.096-.774-.288-.228-.192-.342-.464-.342-.816 0-.352.114-.624.342-.816.228-.192.486-.288.774-.288.288 0 .546.096.774.288.228.192.342.464.342.816z"/>
        <circle cx="10" cy="10" r="9" stroke="#B2B4B5" stroke-width="2"/>
    </g>
</svg>
