<svg xmlns="http://www.w3.org/2000/svg" width="20" height="20" viewBox="0 0 20 20">
    <path fill="#EE3124" fill-rule="evenodd" d="M11.481 2.409c.17.143.337.29.505.436 2.139 1.849 4.276 3.7 6.418 5.545.273.236.408.512.396.88-.012.357-.003.716-.003 1.073 0 .27-.15.42-.41.418l-1.54-.001c-.24.001-.288.048-.288.295v2.743h.002v2.685c0 .613-.461 1.1-1.053 1.101-.974.004-1.95.001-2.924 0-.389-.001-.487-.102-.489-.51-.002-.9.003-1.8-.002-2.7-.004-.805-.458-1.465-1.162-1.699-.994-.332-2.038.346-2.182 1.42-.02.139-.028.28-.028.42-.002.836-.001 1.674-.002 2.51 0 .072 0 .145-.009.217-.031.222-.12.312-.333.342-.07.01-.14.015-.21.015-.904 0-1.81.002-2.715 0-.12-.002-.243-.01-.361-.035-.535-.115-.848-.522-.85-1.113-.003-1.088 0-2.176 0-3.265v-2.105c-.002-.26-.04-.3-.295-.3H2.602c-.05 0-.102.002-.153-.002-.336-.022-.446-.14-.448-.492C2 9.92 2.005 9.553 2 9.184c-.004-.301.109-.541.331-.733 1.012-.872 2.02-1.746 3.032-2.618C6.686 4.69 8.006 3.545 9.332 2.408c.637-.547 1.507-.541 2.149.001zm4.127-.26c.302.006.503.244.503.564.001.99 0 1.982-.001 2.974 0 .023-.003.047-.005.101L14.73 4.604c-.478-.41-.954-.822-1.434-1.231-.09-.077-.135-.166-.13-.287.006-.121.001-.243.001-.364 0-.324.198-.567.509-.573.644-.012 1.288-.012 1.932 0z"/>
</svg>
