<svg xmlns="http://www.w3.org/2000/svg" width="64" height="64" viewBox="0 0 64 64">
    <defs>
        <filter id="prefix__a" width="177.2%" height="529.9%" x="-38.6%" y="-215%" filterUnits="objectBoundingBox">
            <feGaussianBlur in="SourceGraphic" stdDeviation="4.167"/>
        </filter>
        <filter id="prefix__c" width="657.3%" height="222.3%" x="-278.6%" y="-61.2%" filterUnits="objectBoundingBox">
            <feGaussianBlur in="SourceGraphic" stdDeviation="6.667"/>
        </filter>
        <linearGradient id="prefix__b" x1="0%" x2="100%" y1="0%" y2="100%">
            <stop offset="0%" stop-color="#F8091E"/>
            <stop offset="100%" stop-color="#A9085A"/>
        </linearGradient>
    </defs>
    <g fill="none" fill-rule="evenodd">
        <path d="M0 0H79.751V79.751H0z"/>
        <ellipse cx="16.332" cy="3.04" fill="#115B79" fill-rule="nonzero" filter="url(#prefix__a)" opacity=".45" rx="16.199" ry="2.908" transform="translate(15.95 53.433)"/>
        <circle cx="32.299" cy="30.704" r="16.349" fill="url(#prefix__b)" fill-rule="nonzero"/>
        <g opacity=".56">
            <ellipse cx="3.674" cy="16.638" fill="#115B79" fill-rule="nonzero" filter="url(#prefix__c)" opacity=".34" rx="3.589" ry="16.349" transform="rotate(9 -44.052 228.867)"/>
        </g>
        <path fill="#FFF" d="M36.3 9.746c1.302.23 2.171 1.47 1.942 2.771l-3.186 18.064c-.229 1.302-1.47 2.17-2.771 1.941-1.301-.23-2.17-1.47-1.94-2.771l3.184-18.065c.23-1.3 1.47-2.17 2.772-1.94z"/>
        <circle cx="31.103" cy="39.078" r="2.393" fill="#FFF"/>
    </g>
</svg>
