<svg xmlns="http://www.w3.org/2000/svg" width="36" height="36" viewBox="0 0 36 36">
    <path fill="#FFF" fill-rule="evenodd" d="M27.9 0C32.374 0 36 3.626 36 8.1v19.8c0 4.474-3.626 8.1-8.1 8.1H8.1C3.626 36 0 32.374 0 27.9V8.1C0 3.626 3.626 0 8.1 0h19.8zm-9.456 9c-2.565 0-2.887.011-3.894.057-1.005.046-1.691.205-2.292.439-.62.24-1.148.564-1.673 1.089-.525.524-.847 1.051-1.09 1.672-.234.6-.393 1.287-.438 2.292C9.012 15.556 9 15.879 9 18.443s.011 2.885.057 3.892c.046 1.006.205 1.692.439 2.292.241.621.564 1.148 1.089 1.673.524.525 1.051.849 1.672 1.09.6.233 1.287.392 2.292.438.93.043 1.275.056 3.34.057h1.107c2.064-.001 2.41-.014 3.34-.057 1.004-.046 1.691-.205 2.292-.438.621-.241 1.147-.565 1.672-1.09.525-.525.848-1.052 1.09-1.673.232-.6.391-1.287.438-2.292.042-.93.055-1.274.057-3.339v-1.107c-.002-2.064-.015-2.41-.057-3.34-.047-1.005-.206-1.691-.438-2.292-.242-.62-.565-1.148-1.09-1.672-.526-.526-1.05-.848-1.672-1.09-.602-.233-1.289-.392-2.294-.438C21.326 9.011 21.006 9 18.44 9h.003zm-.848 1.7v.002h1.391c2.028.001 2.353.012 3.272.054.92.042 1.42.196 1.753.325.441.171.755.376 1.085.706.331.33.536.646.707 1.086.13.333.283.832.325 1.753.042.919.054 1.244.055 3.271v1.087c-.001 2.027-.013 2.352-.055 3.271-.042.92-.196 1.42-.325 1.753-.171.44-.376.754-.707 1.085-.33.33-.644.535-1.085.706-.332.13-.832.283-1.753.325-.919.042-1.244.054-3.272.055H17.9c-2.028-.001-2.353-.013-3.272-.055-.92-.042-1.42-.196-1.754-.325-.44-.172-.755-.376-1.085-.707-.33-.33-.536-.644-.707-1.085-.13-.332-.283-.832-.325-1.753-.04-.88-.052-1.216-.054-3.027V17.65c.002-1.811.014-2.146.054-3.026.042-.92.196-1.42.325-1.753.171-.441.376-.756.707-1.086.33-.33.645-.535 1.085-.707.333-.13.833-.283 1.754-.326.871-.039 1.209-.05 2.968-.053zm.847 2.893c-2.677 0-4.849 2.172-4.849 4.85 0 2.678 2.172 4.848 4.85 4.848 2.678 0 4.848-2.17 4.848-4.848s-2.17-4.85-4.849-4.85zm0 1.702c1.739 0 3.148 1.41 3.148 3.148 0 1.738-1.41 3.147-3.147 3.147-1.739 0-3.148-1.409-3.148-3.147 0-1.739 1.41-3.148 3.148-3.148zm5.041-3.026c-.626 0-1.133.507-1.133 1.133s.507 1.133 1.133 1.133 1.133-.507 1.133-1.133c0-.625-.507-1.133-1.133-1.133z"/>
</svg>
