<svg xmlns="http://www.w3.org/2000/svg" width="36" height="36" viewBox="0 0 36 36">
    <path fill="#FFF" fill-rule="evenodd" d="M27.9 0C32.374 0 36 3.626 36 8.1v19.8c0 4.474-3.626 8.1-8.1 8.1H8.1C3.626 36 0 32.374 0 27.9V8.1C0 3.626 3.626 0 8.1 0h19.8zm-8.163 11.167c-1.548.563-2.526 2.013-2.415 3.6l.037.613-.619-.075c-2.254-.287-4.223-1.262-5.895-2.9l-.817-.813-.21.6c-.446 1.338-.162 2.75.767 3.701.496.525.384.6-.47.288-.298-.1-.558-.175-.582-.138-.087.088.21 1.225.445 1.675.322.626.979 1.238 1.697 1.6l.607.288-.718.013c-.694 0-.719.012-.644.275.247.813 1.226 1.675 2.315 2.05l.768.263-.669.4c-.99.575-2.154.9-3.318.925-.558.013-1.016.063-1.016.1 0 .125 1.51.825 2.39 1.1 2.638.813 5.771.463 8.124-.925 1.672-.987 3.344-2.95 4.124-4.85.421-1.013.842-2.864.842-3.752 0-.575.037-.65.73-1.337.41-.4.794-.838.868-.963.124-.238.111-.238-.52-.025-1.053.375-1.202.325-.681-.238.383-.4.842-1.125.842-1.337 0-.038-.186.025-.397.137-.223.125-.718.313-1.09.425l-.668.213-.607-.413c-.334-.225-.805-.475-1.053-.55-.631-.175-1.597-.15-2.167.05z"/>
</svg>
