<svg xmlns="http://www.w3.org/2000/svg" width="30" height="30" viewBox="0 0 30 30">
    <defs>
        <linearGradient id="prefix__a" x1="0%" x2="100%" y1="0%" y2="100%">
            <stop offset="0%" stop-color="#6A120C"/>
            <stop offset="43.781%" stop-color="#B21F15"/>
            <stop offset="79.575%" stop-color="#EE4C24"/>
            <stop offset="100%" stop-color="#FF7E00"/>
        </linearGradient>
    </defs>
    <g fill="none">
        <circle cx="15" cy="15" r="15" fill="url(#prefix__a)"/>
        <path fill="#FFF" d="M25.268 13.818c-.258 0-.496-.088-.69-.285-2.545-2.61-5.954-4.059-9.578-4.059-3.624 0-7.033 1.426-9.578 4.037-.388.395-.992.395-1.38 0-.39-.395-.39-1.01 0-1.404C6.974 9.123 10.857 7.5 15 7.5s8.025 1.645 10.959 4.607c.388.395.388 1.01 0 1.404-.194.197-.432.307-.69.307zm-2.157 2.61c.389-.394.389-1.008 0-1.403-2.157-2.194-5.048-3.423-8.111-3.423-3.063 0-5.932 1.207-8.111 3.423-.389.395-.389 1.009 0 1.404.388.395.992.395 1.38 0 1.79-1.821 4.185-2.83 6.731-2.83 2.546 0 4.94 1.009 6.73 2.83.195.197.432.285.69.285.238 0 .497-.088.691-.285zm-2.869 2.896c.388-.394.388-1.009 0-1.404-1.402-1.425-3.257-2.193-5.242-2.193-1.985 0-3.84.768-5.242 2.193-.388.395-.388 1.01 0 1.404.388.395.992.395 1.38 0 1.036-1.053 2.417-1.623 3.884-1.623 1.466 0 2.847.57 3.883 1.623.194.198.431.286.69.286.216 0 .475-.088.647-.286zm-2.934 1.602c-1.273-1.294-3.343-1.294-4.616 0l1.014 1.031c.712.724 1.876.724 2.588 0l1.014-1.031z"/>
    </g>
</svg>
